<?xml version="1.0" encoding="utf-8"?>
<svg enable-background="new 0 0 792 612" version="1.1" viewBox="2.145 3.686 124.774 30.879" xmlns="http://www.w3.org/2000/svg">
  <style type="text/css">
	.st0{fill:#008C8D;}
	.st1{clip-path:url(#SVGID_00000085966696256493167560000002704327453263164035_);fill:#E17C40;}
	.st2{clip-path:url(#SVGID_00000181078070421297283590000014797860277928785561_);fill:#E17C40;}
	.st3{clip-path:url(#SVGID_00000160880145434779956370000006984012868983198088_);fill:#E17C40;}
	.st4{clip-path:url(#SVGID_00000039132443472670293260000001985239830063412377_);fill:#E17C40;}
	.st5{clip-path:url(#SVGID_00000147180195466585881870000010767518962225519779_);fill:#E17C40;}
	.st6{clip-path:url(#SVGID_00000175283424524197055990000014324412884095642760_);fill:#008C8D;}
	.st7{clip-path:url(#SVGID_00000160151494850894508800000007914395121062091161_);fill:#E17C40;}
</style>
  <path class="st0" d="M 120.401 19.386 L 120.401 16.427 C 120.401 13.779 120.313 11.748 120.247 10.424 L 120.282 10.424 C 120.568 11.603 121.118 13.265 121.536 14.377 L 123.396 19.386 L 125.585 19.386 L 125.585 6.224 L 123.488 6.224 L 123.488 9.131 C 123.488 11.55 123.646 13.85 123.73 15.221 L 123.695 15.221 C 123.352 14.082 122.754 12.398 122.38 11.382 L 120.494 6.22 L 118.303 6.22 L 118.303 19.381 L 120.401 19.381 L 120.401 19.386 Z M 112.895 8.296 C 113.972 8.296 114.302 10.375 114.302 12.702 C 114.302 15.362 113.924 17.324 112.913 17.324 C 111.945 17.324 111.426 15.797 111.426 12.812 C 111.43 9.984 111.945 8.296 112.895 8.296 M 112.996 6.071 C 110.278 6.071 108.946 9.18 108.946 12.777 C 108.946 16.387 110.046 19.544 112.82 19.544 C 115.146 19.544 116.791 17.539 116.791 12.575 C 116.787 9.562 115.951 6.071 112.996 6.071 M 105.032 19.386 L 107.424 19.386 L 107.424 6.224 L 105.032 6.224 L 105.032 19.386 Z M 97.24 18.977 C 97.649 19.24 98.603 19.504 99.593 19.504 C 101.985 19.504 103.643 17.93 103.643 15.512 C 103.643 14.131 103.054 12.798 101.422 11.752 C 100.103 10.899 99.733 10.486 99.733 9.694 C 99.733 9 100.222 8.335 101.246 8.335 C 101.932 8.335 102.455 8.551 102.807 8.784 L 103.19 6.581 C 102.834 6.352 102.077 6.106 101.259 6.106 C 98.687 6.106 97.381 7.856 97.381 9.971 C 97.381 11.167 98.014 12.543 99.694 13.647 C 100.732 14.36 101.29 14.843 101.29 15.784 C 101.29 16.651 100.727 17.28 99.602 17.28 C 98.925 17.28 98.076 17.068 97.583 16.765 L 97.24 18.977 Z M 93.349 19.386 L 95.741 19.386 L 95.741 6.224 L 93.349 6.224 L 93.349 19.386 Z M 89.497 19.386 L 92.302 6.224 L 89.681 6.224 L 88.841 11.853 C 88.626 13.335 88.423 14.909 88.265 16.475 L 88.221 16.475 C 88.054 14.931 87.808 13.326 87.592 11.91 L 86.721 6.229 L 84.083 6.229 L 86.823 19.39 L 89.497 19.39 L 89.497 19.386 Z" style=""/>
  <path class="st0" d="M 74.77 19.386 L 74.77 16.427 C 74.77 13.779 74.686 11.748 74.616 10.424 L 74.651 10.424 C 74.933 11.603 75.487 13.265 75.9 14.377 L 77.756 19.386 L 79.937 19.386 L 79.937 6.224 L 77.848 6.224 L 77.848 9.131 C 77.848 11.55 78.006 13.85 78.09 15.221 L 78.055 15.221 C 77.711 14.082 77.118 12.398 76.744 11.382 L 74.862 6.22 L 72.681 6.22 L 72.681 19.381 L 74.77 19.381 L 74.77 19.386 Z M 67.29 8.296 C 68.367 8.296 68.693 10.375 68.693 12.702 C 68.693 15.362 68.314 17.324 67.307 17.324 C 66.345 17.324 65.83 15.797 65.83 12.812 C 65.83 9.984 66.345 8.296 67.29 8.296 M 67.387 6.071 C 64.678 6.071 63.35 9.18 63.35 12.777 C 63.35 16.387 64.444 19.544 67.211 19.544 C 69.528 19.544 71.168 17.539 71.168 12.575 C 71.168 9.562 70.337 6.071 67.387 6.071 M 60.087 19.386 L 62.216 19.386 L 61.472 6.224 L 58.961 6.224 L 57.998 10.987 C 57.677 12.653 57.405 14.136 57.22 15.6 L 57.18 15.6 C 56.961 14.109 56.653 12.658 56.314 10.987 L 55.338 6.224 L 52.827 6.224 L 51.948 19.386 L 53.988 19.386 L 54.195 14.817 C 54.256 13.515 54.344 11.853 54.379 10.42 L 54.423 10.42 C 54.608 11.849 54.934 13.485 55.17 14.549 L 56.186 19.171 L 57.875 19.171 L 58.939 14.474 C 59.168 13.45 59.494 11.831 59.713 10.42 L 59.762 10.42 C 59.735 11.84 59.814 13.524 59.876 14.786 L 60.087 19.386 Z M 45.506 19.386 L 51.015 19.386 L 51.015 17.218 L 47.888 17.218 L 47.888 6.224 L 45.506 6.224 L 45.506 19.386 Z M 39.376 14.395 L 39.824 11.642 C 39.952 10.882 40.132 9.518 40.264 8.647 L 40.307 8.647 C 40.426 9.518 40.593 10.837 40.708 11.638 L 41.117 14.395 L 39.376 14.395 Z M 41.328 16.382 L 41.851 19.39 L 44.168 19.39 L 41.79 6.229 L 38.94 6.229 L 36.284 19.39 L 38.592 19.39 L 39.129 16.382 L 41.328 16.382 Z M 29.428 18.977 C 29.838 19.24 30.788 19.504 31.772 19.504 C 34.156 19.504 35.809 17.93 35.809 15.512 C 35.809 14.131 35.22 12.798 33.597 11.752 C 32.282 10.899 31.913 10.481 31.913 9.694 C 31.913 9 32.401 8.335 33.421 8.335 C 34.107 8.335 34.626 8.551 34.974 8.784 L 35.352 6.581 C 35 6.352 34.244 6.106 33.43 6.106 C 30.866 6.106 29.565 7.856 29.565 9.971 C 29.565 11.167 30.198 12.543 31.869 13.652 C 32.907 14.364 33.461 14.848 33.461 15.784 C 33.461 16.651 32.902 17.28 31.781 17.28 C 31.104 17.28 30.26 17.068 29.772 16.765 L 29.428 18.977 Z" style=""/>
  <defs>
    <rect id="b" transform="matrix(.8517 -.5241 .5241 .8517 -95.076 316.79)" x="492.43" y="307.62" width="39.41" height="37.5"/>
  </defs>
  <clipPath id="j">
    <rect transform="matrix(0.851676, -0.524069, 0.524091, 0.851663, -151.699524, 23.167856)" x="216.54" y="135.271" width="17.33" height="16.49"/>
  </clipPath>
  <path d="M 106.215 28.739 C 106.215 28.739 109.918 32.912 113.572 32.983 C 113.572 32.983 113.88 34.803 114.416 34.354 C 114.953 33.902 115.762 33.4 116.461 32.969 C 117.16 32.538 118.638 31.879 118.902 32.389 C 119.165 32.899 119.614 33.713 120.177 33.304 C 120.74 32.895 120.753 32.587 121.118 31.94 C 121.483 31.29 123.805 31.268 124.851 30.977 C 126.223 30.639 126.769 29.812 126.715 29.478 C 126.65 28.977 125.682 28.233 123.954 28.264 C 122.947 28.282 120.494 28.128 119.781 27.947 C 118.937 27.732 117.895 27.275 117.622 27.745 C 117.354 28.216 117.38 28.884 117.38 28.884 C 117.38 28.884 116.237 29.46 113.814 29.487 C 111.391 29.517 109.144 29.328 107.499 28.391 C 105.854 27.455 107.35 26.641 107.35 26.641 C 107.35 26.641 107.723 26.334 107.398 26.061 C 107.214 25.929 106.378 25.806 105.854 25.459 C 105.332 25.111 104.601 24.526 104.188 24.597 C 103.775 24.667 103.691 25.01 104.258 25.955 C 104.812 26.927 106.215 28.739 106.215 28.739" clip-path="url(#j)" fill="#E17C40" style=""/>
  <defs>
    <rect id="d" x="447.79" y="319.9" width="44" height="18.28"/>
  </defs>
  <clipPath id="e">
    <rect x="87.011" y="24.535" width="19.349" height="8.038"/>
  </clipPath>
  <path d="M 87.86 29.473 C 87.86 29.473 90.956 26.708 93.458 28.15 C 93.458 28.15 94.452 30.12 94.804 29.794 C 95.156 29.465 96.229 29.223 96.229 29.223 L 98.581 30.419 C 98.581 30.419 97.816 31.778 98.076 31.853 C 98.331 31.927 99.488 32.121 100.837 31.228 C 100.837 31.228 106.611 33.655 106.352 32.002 C 106.352 32.002 106.233 30.872 104.131 29.632 C 101.677 28.185 97.601 25.749 97.601 25.749 C 97.601 25.749 95.952 24.289 95.85 24.579 C 95.75 24.865 95.573 25.621 95.573 25.621 C 95.573 25.621 93.133 25.34 89.54 26.444 C 89.54 26.444 87.047 25.516 87.007 25.89 C 86.968 26.263 88.485 27.429 88.287 27.724 C 88.094 28.014 87.395 29.46 87.86 29.473" clip-path="url(#e)" fill="#E17C40" style=""/>
  <defs>
    <rect id="h" x="399.72" y="321.72" width="45.95" height="20.26"/>
  </defs>
  <clipPath id="g">
    <rect x="65.874" y="25.335" width="20.206" height="8.909"/>
  </clipPath>
  <path d="M 68.491 30.459 C 68.491 30.459 68.187 31.861 67.492 32.534 C 66.798 33.207 65.5 34.249 65.975 34.249 C 66.45 34.249 67.796 34.09 69.269 33.783 C 70.742 33.471 73.732 33.317 74.466 32.745 C 75.201 32.174 74.897 33.99 75.288 33.783 C 75.68 33.576 76.067 32.639 76.414 32.358 C 76.762 32.072 79.145 31.347 79.752 30.933 C 80.359 30.52 80.143 32.23 80.403 32.358 C 80.662 32.49 81.485 31.448 81.964 30.049 C 82.438 28.647 84.303 28.286 84.562 28.079 C 84.822 27.873 86.946 26.316 85.688 25.692 C 85.688 25.692 84.822 24.913 81.788 25.692 C 78.754 26.47 77.672 26.364 77.369 26.417 C 77.065 26.47 77.716 27.328 77.456 27.609 C 76.52 28.625 75.799 29.099 73.991 30.049 C 72.224 30.977 71.349 31.5 70.614 31.452 C 69.875 31.39 69.053 30.406 68.491 30.459" clip-path="url(#g)" fill="#E17C40" style=""/>
  <defs>
    <rect id="i" x="355.92" y="319.9" width="43.8" height="19.84"/>
  </defs>
  <clipPath id="k">
    <rect x="46.614" y="24.535" width="19.26" height="8.724"/>
  </clipPath>
  <path d="M 61.679 31.531 C 61.679 31.531 64.784 33.141 65.707 32.085 C 65.707 32.085 66.256 31.663 65.377 30.687 C 64.076 29.244 61.573 26.44 58.509 25.903 C 58.509 25.903 57.708 24.315 57.418 24.566 C 57.123 24.816 56.257 26.057 56.257 26.057 C 56.257 26.057 51.191 25.969 50.263 26.786 C 49.335 27.605 46.618 30.723 46.618 30.723 C 46.618 30.723 46.838 31.435 46.904 31.971 C 46.97 32.507 48.882 29.355 48.882 29.355 C 48.882 29.355 50.206 27.706 51.495 28.515 C 52.37 29.064 53.68 29.333 54.419 29.17 C 54.419 29.17 54.23 30.608 54.529 30.476 C 54.828 30.344 56.433 30.071 56.433 30.071 C 56.433 30.071 59.217 30.977 59.621 31.078 C 60.025 31.18 58.781 33.277 59.085 33.264 C 59.37 33.251 60.672 33.075 61.679 31.531" clip-path="url(#k)" fill="#E17C40" style=""/>
  <defs>
    <rect id="n" x="312.24" y="320.32" width="45.18" height="19.01"/>
  </defs>
  <clipPath id="c">
    <rect x="27.406" y="24.72" width="19.868" height="8.36"/>
  </clipPath>
  <path d="M 29.354 33.062 C 29.354 33.062 31.302 29.064 34.077 29.223 C 34.077 29.223 35.638 30.573 35.853 30.106 C 36.069 29.64 36.979 28.915 36.979 28.915 L 39.534 28.915 C 39.534 28.915 39.274 30.524 39.534 30.472 C 39.793 30.419 40.919 30.058 41.873 28.603 C 41.873 28.603 47.981 28.137 47.203 26.734 C 47.203 26.734 46.728 25.749 44.388 25.591 C 41.658 25.41 37.111 25.072 37.111 25.072 C 37.111 25.072 35.119 24.5 35.119 24.812 C 35.119 25.124 35.207 25.903 35.207 25.903 C 35.207 25.903 32.867 26.786 29.921 29.482 C 29.921 29.482 27.322 29.794 27.41 30.155 C 27.498 30.52 29.275 30.881 29.187 31.245 C 29.095 31.611 28.923 33.268 29.354 33.062" clip-path="url(#c)" fill="#E17C40" style=""/>
  <defs>
    <rect id="m" x="255.42" y="272.84" width="51.42" height="50.79"/>
  </defs>
  <path d="M 2.42 14.808 L 13.528 8.212 L 8.277 5.178 C 8.277 5.178 2.604 7.948 2.42 14.808" fill="#008C8D" style=""/>
  <path d="M 8.858 4.967 L 19.446 11.057 L 19.446 5.416 C 19.446 5.416 14.899 2.197 8.858 4.967" fill="#008C8D" style=""/>
  <path d="M 19.882 5.657 L 19.882 17.816 L 25.031 14.756 C 25.031 14.756 25.189 9.052 19.882 5.657" fill="#008C8D" style=""/>
  <path d="M 16.474 20.349 L 25.031 15.252 C 25.031 15.252 24.728 19.993 22.551 22.016 C 22.551 22.016 21.759 21.074 21.029 21.109 C 20.299 21.141 19.816 21.892 19.816 21.892 C 19.816 21.892 18.87 21.91 16.474 20.349" fill="#008C8D" style=""/>
  <path d="M 7.961 18.946 L 7.961 24.636 C 7.961 24.636 10.731 26.356 14.024 26.167 C 14.024 26.167 13.497 25.894 13.888 24.417 C 13.888 24.417 12.16 22.97 11.307 20.85 L 7.961 18.946 Z" fill="#008C8D" style=""/>
  <path d="M 7.504 24.32 L 7.504 12.319 L 2.42 15.349 C 2.42 15.349 2.403 21.343 7.504 24.32" fill="#008C8D" style=""/>
  <defs>
    <rect id="f" x="273.83" y="291.55" width="39.41" height="37.5"/>
  </defs>
  <clipPath id="l">
    <rect x="10.516" y="12.069" width="17.329" height="16.49"/>
  </clipPath>
  <path d="M 10.722 16.708 C 10.722 16.708 11.69 22.2 14.763 24.175 C 14.763 24.175 14.069 25.885 14.763 25.784 C 15.458 25.678 16.408 25.674 17.235 25.674 C 18.057 25.674 19.662 25.885 19.618 26.457 C 19.574 27.029 19.53 27.956 20.225 27.904 C 20.92 27.851 21.091 27.596 21.742 27.235 C 22.393 26.87 24.381 28.071 25.423 28.374 C 26.768 28.8 27.665 28.387 27.797 28.075 C 28.004 27.609 27.568 26.474 26.082 25.595 C 25.212 25.08 23.206 23.664 22.692 23.137 C 22.085 22.508 21.434 21.576 20.959 21.835 C 20.484 22.094 20.154 22.675 20.154 22.675 C 20.154 22.675 18.879 22.565 16.8 21.321 C 14.719 20.076 12.903 18.74 11.993 17.077 C 11.083 15.415 12.785 15.507 12.785 15.507 C 12.785 15.507 13.264 15.442 13.132 15.041 C 13.044 14.835 12.398 14.29 12.134 13.718 C 11.87 13.146 11.553 12.267 11.166 12.108 C 10.775 11.954 10.529 12.201 10.516 13.3 C 10.476 14.43 10.722 16.708 10.722 16.708" clip-path="url(#l)" fill="#E17C40" style=""/>
</svg>